<?xml version="1.0" encoding="UTF-8" standalone="no"?>
<!-- Created with Inkscape (http://www.inkscape.org/) -->
<svg
   xmlns:dc="http://purl.org/dc/elements/1.1/"
   xmlns:cc="http://web.resource.org/cc/"
   xmlns:rdf="http://www.w3.org/1999/02/22-rdf-syntax-ns#"
   xmlns:svg="http://www.w3.org/2000/svg"
   xmlns="http://www.w3.org/2000/svg"
   xmlns:sodipodi="http://sodipodi.sourceforge.net/DTD/sodipodi-0.dtd"
   xmlns:inkscape="http://www.inkscape.org/namespaces/inkscape"
   version="1.0"
   width="59.999989"
   height="51.097256"
   id="svg2"
   sodipodi:version="0.32"
   inkscape:version="0.45"
   sodipodi:docname="note_pro.svg"
   sodipodi:docbase="/home/ivan/svn/pytables/doc/xml/images"
   inkscape:output_extension="org.inkscape.output.svg.inkscape"
   sodipodi:modified="true">
  <metadata
     id="metadata5298">
    <rdf:RDF>
      <cc:Work
         rdf:about="">
        <dc:format>image/svg+xml</dc:format>
        <dc:type
           rdf:resource="http://purl.org/dc/dcmitype/StillImage" />
      </cc:Work>
    </rdf:RDF>
  </metadata>
  <sodipodi:namedview
     inkscape:cy="25.548627"
     inkscape:cx="29.999994"
     inkscape:zoom="1"
     inkscape:window-height="734"
     inkscape:window-width="1022"
     inkscape:pageshadow="2"
     inkscape:pageopacity="0.0"
     guidetolerance="10.0"
     gridtolerance="10.0"
     objecttolerance="10.0"
     borderopacity="1.0"
     bordercolor="#666666"
     pagecolor="#ffffff"
     id="base"
     inkscape:window-x="0"
     inkscape:window-y="0"
     inkscape:current-layer="svg2" />
  <defs
     id="defs4" />
  <g
     id="g5425">
    <g
       id="g5407">
      <g
         id="g4578"
         transform="matrix(0.1837052,0,0,0.1837052,-30.967578,-71.113621)">
        <path
           sodipodi:nodetypes="ccccc"
           id="path5391"
           d="M 269.29134,665.25588 L 370,639.50504 L 392.42126,528.83856 L 316.24016,504.92124 L 209.94094,515.55116"
           style="fill:#ffc500;fill-opacity:1;fill-rule:evenodd;stroke:none;stroke-width:0.25pt;stroke-linecap:butt;stroke-linejoin:miter;stroke-opacity:1" />
        <path
           sodipodi:nodetypes="cccc"
           id="path5393"
           d="M 210,515.21932 L 254.28571,558.07647 L 269.29134,665.25588 L 232.5,612.36218"
           style="fill:#ff8000;fill-opacity:1;fill-rule:evenodd;stroke:none;stroke-width:0.25pt;stroke-linecap:butt;stroke-linejoin:miter;stroke-opacity:1" />
        <path
           sodipodi:nodetypes="cccc"
           id="path5395"
           d="M 209.94094,515.55116 L 316.24016,504.92124 L 392.42126,528.83856 L 254.23228,558.07084"
           style="fill:#000000;fill-opacity:1;fill-rule:evenodd;stroke:none;stroke-width:0.31200001;stroke-linecap:butt;stroke-linejoin:miter;stroke-miterlimit:4;stroke-dasharray:none;stroke-opacity:1" />
        <path
           sodipodi:nodetypes="cccc"
           id="path5397"
           d="M 293.57143,634.1479 L 378.24803,599.7047 L 392.14286,529.50504 L 254.23228,558.07084"
           style="fill:#ff8000;fill-opacity:1;fill-rule:evenodd;stroke:none;stroke-width:0.25pt;stroke-linecap:butt;stroke-linejoin:miter;stroke-opacity:1" />
        <path
           sodipodi:nodetypes="cccc"
           id="path5399"
           d="M 298.21429,622.00504 L 408.21429,565.57647 L 392.42126,528.83856 L 254.23228,558.07084"
           style="fill:#ffff00;fill-opacity:1;fill-rule:evenodd;stroke:none;stroke-width:0.25pt;stroke-linecap:butt;stroke-linejoin:miter;stroke-opacity:1" />
        <path
           sodipodi:nodetypes="cccc"
           id="path5401"
           d="M 254.23228,558.07084 L 207.14286,593.43361 L 168.57143,520.93361 L 209.94094,515.55116"
           style="fill:#ffb000;fill-opacity:1;fill-rule:evenodd;stroke:none;stroke-width:0.25pt;stroke-linecap:butt;stroke-linejoin:miter;stroke-opacity:1" />
        <path
           sodipodi:nodetypes="cccc"
           id="path5403"
           d="M 316.24016,504.92124 L 290.71429,479.1479 L 185,501.29075 L 209.94094,515.55116"
           style="fill:#fedc00;fill-opacity:1;fill-rule:evenodd;stroke:none;stroke-width:0.25pt;stroke-linecap:butt;stroke-linejoin:miter;stroke-opacity:1" />
        <path
           sodipodi:nodetypes="cccc"
           id="path5405"
           d="M 392.42126,528.83856 L 426.42857,499.50504 L 329.28571,484.86218 L 316.24016,504.92124"
           style="fill:#fedc00;fill-opacity:1;fill-rule:evenodd;stroke:none;stroke-width:0.25pt;stroke-linecap:butt;stroke-linejoin:miter;stroke-opacity:1" />
      </g>
      <g
         id="g20830"
         transform="matrix(0.1837042,0,0,0.1837042,-30.96728,-71.113049)">
        <rect
           id="rect11882"
           style="opacity:1;color:#000000;fill:#5ac4fe;fill-opacity:1;fill-rule:evenodd;stroke:none;stroke-width:0.31200001;stroke-linecap:butt;stroke-linejoin:miter;marker:none;marker-start:none;marker-mid:none;marker-end:none;stroke-miterlimit:4;stroke-dasharray:none;stroke-dashoffset:0;stroke-opacity:1;visibility:visible;display:inline;overflow:visible"
           transform="matrix(0.914235,-0.405185,0.405185,0.914235,0,0)"
           y="507.73257"
           x="80.187126"
           height="57.57877"
           width="57.57877" />
        <path
           id="path10124"
           style="opacity:1;color:#000000;fill:#fe0000;fill-opacity:1;fill-rule:evenodd;stroke:none;stroke-width:0.31200001;stroke-linecap:butt;stroke-linejoin:miter;marker:none;marker-start:none;marker-mid:none;marker-end:none;stroke-miterlimit:4;stroke-dasharray:none;stroke-dashoffset:0;stroke-opacity:1;visibility:visible;display:inline;overflow:visible"
           transform="translate(0.391719,-1.379946)"
           d="M 250.50726,537.72582 C 236.55414,525.61222 234.80555,504.58217 246.56647,490.33052 C 258.32739,476.07888 279.30714,473.80498 293.84841,485.20587 C 308.38968,496.60675 311.18745,517.52309 300.15373,532.34488 C 289.12001,547.16668 268.28016,550.48658 253.18711,539.82692" />
        <path
           id="path11890"
           style="opacity:1;color:#000000;fill:#5afe00;fill-opacity:1;fill-rule:evenodd;stroke:none;stroke-width:0.31200001;stroke-linecap:butt;stroke-linejoin:miter;marker:none;marker-start:none;marker-mid:none;marker-end:none;stroke-miterlimit:4;stroke-dasharray:none;stroke-dashoffset:0;stroke-opacity:1;visibility:visible;display:inline;overflow:visible"
           transform="matrix(0.73867,0.674068,-0.674068,0.73867,349.1653,-90.46148)"
           d="M 415.45275,450.88584 L 380.79534,446.09214 L 346.13793,441.29843 L 367.61811,413.68109 L 389.09828,386.06374 L 402.27552,418.47479 L 415.45275,450.88584 z " />
        <rect
           id="rect11884"
           style="opacity:1;color:#000000;fill:#5ac4fe;fill-opacity:1;fill-rule:evenodd;stroke:none;stroke-width:0.31200001;stroke-linecap:butt;stroke-linejoin:miter;marker:none;marker-start:none;marker-mid:none;marker-end:none;stroke-miterlimit:4;stroke-dasharray:none;stroke-dashoffset:0;stroke-opacity:1;visibility:visible;display:inline;overflow:visible"
           transform="matrix(0.604469,-0.796629,0.796629,0.604469,0,0)"
           y="572.77979"
           x="-155.59625"
           height="57.578861"
           width="57.578861" />
        <path
           id="path11872"
           style="opacity:1;color:#000000;fill:#5afe00;fill-opacity:1;fill-rule:evenodd;stroke:none;stroke-width:0.31200001;stroke-linecap:butt;stroke-linejoin:miter;marker:none;marker-start:none;marker-mid:none;marker-end:none;stroke-miterlimit:4;stroke-dasharray:none;stroke-dashoffset:0;stroke-opacity:1;visibility:visible;display:inline;overflow:visible"
           transform="translate(188.2894,-74.85915)"
           d="M 250.50726,537.72582 C 236.55414,525.61222 234.80555,504.58217 246.56647,490.33052 C 258.32739,476.07888 279.30714,473.80498 293.84841,485.20587 C 308.38968,496.60675 311.18745,517.52309 300.15373,532.34488 C 289.12001,547.16668 268.28016,550.48658 253.18711,539.82692" />
        <path
           id="path11886"
           style="opacity:1;color:#000000;fill:#fe0000;fill-opacity:1;fill-rule:evenodd;stroke:none;stroke-width:0.31200001;stroke-linecap:butt;stroke-linejoin:miter;marker:none;marker-start:none;marker-mid:none;marker-end:none;stroke-miterlimit:4;stroke-dasharray:none;stroke-dashoffset:0;stroke-opacity:1;visibility:visible;display:inline;overflow:visible"
           transform="translate(-0.66549,1.042535)"
           d="M 415.45275,450.88584 L 380.79534,446.09214 L 346.13793,441.29843 L 367.61811,413.68109 L 389.09828,386.06374 L 402.27552,418.47479 L 415.45275,450.88584 z " />
      </g>
    </g>
    <path
       id="text18207"
       style="font-size:160px;font-style:normal;font-variant:normal;font-weight:bold;font-stretch:normal;text-align:start;line-height:125%;writing-mode:lr-tb;text-anchor:start;fill:#fe0000;fill-opacity:1;stroke:none;stroke-width:1pt;stroke-linecap:butt;stroke-linejoin:miter;stroke-opacity:1;font-family:Steelfish"
       d="M 39.995832,30.961118 L 39.995832,36.834152 L 40.891677,36.834152 C 41.653653,36.834165 42.034644,36.470598 42.034651,35.743446 L 42.034651,32.051824 C 42.034644,31.324706 41.643356,30.961137 40.860786,30.961118 L 39.995832,30.961118 M 39.995832,39.910504 L 39.995832,51.097237 L 36.5978,51.097237 L 36.5978,27.884766 L 40.860786,27.884766 C 43.908708,27.884789 45.432674,29.73992 45.432683,33.450166 L 45.432683,34.345104 C 45.432674,38.055382 43.919005,39.910514 40.891677,39.910504 L 39.995832,39.910504 M 49.430198,34.177303 C 49.883263,33.823072 50.501087,33.645949 51.28367,33.645934 L 51.28367,37.449423 C 50.912969,36.815521 50.501087,36.498564 50.048022,36.49855 C 49.636134,36.498564 49.430194,36.731621 49.430198,37.197721 L 49.430198,51.097237 L 46.371969,51.097237 L 46.371969,33.645934 L 49.430198,33.645934 L 49.430198,34.177303 M 56.940621,37.197721 C 56.940615,36.731621 56.724376,36.498564 56.291905,36.49855 C 55.900612,36.498564 55.704969,36.731621 55.704973,37.197721 L 55.704973,47.545449 C 55.704969,48.030209 55.900612,48.272588 56.291905,48.272587 C 56.724376,48.272588 56.940615,48.030209 56.940621,47.545449 L 56.940621,37.197721 M 59.998849,46.734411 C 59.99884,49.642961 58.763194,51.097235 56.291905,51.097237 C 53.861795,51.097235 52.646742,49.642961 52.646744,46.734411 L 52.646744,38.008759 C 52.646742,35.100223 53.861795,33.645949 56.291905,33.645934 C 58.763194,33.645949 59.99884,35.100223 59.998849,38.008759 L 59.998849,46.734411" />
  </g>
</svg>
