<?xml version="1.0" encoding="UTF-8" standalone="no"?>
<!-- Created with Inkscape (http://www.inkscape.org/) -->
<svg
   xmlns:svg="http://www.w3.org/2000/svg"
   xmlns="http://www.w3.org/2000/svg"
   version="1.0"
   width="59.999989"
   height="51.097256"
   id="svg2">
  <defs
     id="defs4" />
  <g
     transform="matrix(0.1837042,0,0,0.1837042,-30.96728,-71.113049)"
     id="layer1">
    <g
       id="g2195">
      <g
         id="g2238">
        <g
           id="g14519">
          <path
             d="M 210,515.21932 L 254.28571,558.07647 L 269.29134,665.25588 L 232.5,612.36218"
             style="fill:#ff8000;fill-opacity:1;fill-rule:evenodd;stroke:none;stroke-width:0.25pt;stroke-linecap:butt;stroke-linejoin:miter;stroke-opacity:1"
             id="path4850" />
          <path
             d="M 269.29134,665.25588 L 370,639.50504 L 392.14286,529.50504 L 254.28571,557.71932"
             style="fill:#ffc500;fill-opacity:1;fill-rule:evenodd;stroke:none;stroke-width:0.25pt;stroke-linecap:butt;stroke-linejoin:miter;stroke-opacity:1"
             id="path3975" />
          <path
             d="M 209.94094,515.55116 L 316.24016,504.92124 L 392.42126,528.83856 L 254.23228,558.07084"
             style="fill:#000000;fill-opacity:1;fill-rule:evenodd;stroke:none;stroke-width:0.31200001;stroke-linecap:butt;stroke-linejoin:miter;stroke-miterlimit:4;stroke-dasharray:none;stroke-opacity:1"
             id="path1350" />
          <path
             d="M 293.57143,634.1479 L 378.24803,599.7047 L 392.14286,529.50504 L 254.23228,558.07084"
             style="fill:#ff8000;fill-opacity:1;fill-rule:evenodd;stroke:none;stroke-width:0.25pt;stroke-linecap:butt;stroke-linejoin:miter;stroke-opacity:1"
             id="path3100" />
          <path
             d="M 298.21429,622.00504 L 408.21429,565.57647 L 392.42126,528.83856 L 254.23228,558.07084"
             style="fill:#ffff00;fill-opacity:1;fill-rule:evenodd;stroke:none;stroke-width:0.25pt;stroke-linecap:butt;stroke-linejoin:miter;stroke-opacity:1"
             id="path2225" />
          <path
             d="M 254.23228,558.07084 L 207.14286,593.43361 L 168.57143,520.93361 L 209.94094,515.55116"
             style="fill:#ffb000;fill-opacity:1;fill-rule:evenodd;stroke:none;stroke-width:0.25pt;stroke-linecap:butt;stroke-linejoin:miter;stroke-opacity:1"
             id="path5725" />
          <path
             d="M 316.24016,504.92124 L 290.71429,479.1479 L 185,501.29075 L 209.94094,515.55116"
             style="fill:#fedc00;fill-opacity:1;fill-rule:evenodd;stroke:none;stroke-width:0.25pt;stroke-linecap:butt;stroke-linejoin:miter;stroke-opacity:1"
             id="path6600" />
          <path
             d="M 392.42126,528.83856 L 426.42857,499.50504 L 329.28571,484.86218 L 316.24016,504.92124"
             style="fill:#fedc00;fill-opacity:1;fill-rule:evenodd;stroke:none;stroke-width:0.25pt;stroke-linecap:butt;stroke-linejoin:miter;stroke-opacity:1"
             id="path7475" />
        </g>
        <g
           id="g20830">
          <rect
             width="57.57877"
             height="57.57877"
             x="80.187126"
             y="507.73257"
             transform="matrix(0.914235,-0.405185,0.405185,0.914235,0,0)"
             style="opacity:1;color:#000000;fill:#5ac4fe;fill-opacity:1;fill-rule:evenodd;stroke:none;stroke-width:0.31200001;stroke-linecap:butt;stroke-linejoin:miter;marker:none;marker-start:none;marker-mid:none;marker-end:none;stroke-miterlimit:4;stroke-dasharray:none;stroke-dashoffset:0;stroke-opacity:1;visibility:visible;display:inline;overflow:visible"
             id="rect11882" />
          <path
             d="M 250.50726,537.72582 C 236.55414,525.61222 234.80555,504.58217 246.56647,490.33052 C 258.32739,476.07888 279.30714,473.80498 293.84841,485.20587 C 308.38968,496.60675 311.18745,517.52309 300.15373,532.34488 C 289.12001,547.16668 268.28016,550.48658 253.18711,539.82692"
             transform="translate(0.391719,-1.379946)"
             style="opacity:1;color:#000000;fill:#fe0000;fill-opacity:1;fill-rule:evenodd;stroke:none;stroke-width:0.31200001;stroke-linecap:butt;stroke-linejoin:miter;marker:none;marker-start:none;marker-mid:none;marker-end:none;stroke-miterlimit:4;stroke-dasharray:none;stroke-dashoffset:0;stroke-opacity:1;visibility:visible;display:inline;overflow:visible"
             id="path10124" />
          <path
             d="M 415.45275,450.88584 L 380.79534,446.09214 L 346.13793,441.29843 L 367.61811,413.68109 L 389.09828,386.06374 L 402.27552,418.47479 L 415.45275,450.88584 z "
             transform="matrix(0.73867,0.674068,-0.674068,0.73867,349.1653,-90.46148)"
             style="opacity:1;color:#000000;fill:#5afe00;fill-opacity:1;fill-rule:evenodd;stroke:none;stroke-width:0.31200001;stroke-linecap:butt;stroke-linejoin:miter;marker:none;marker-start:none;marker-mid:none;marker-end:none;stroke-miterlimit:4;stroke-dasharray:none;stroke-dashoffset:0;stroke-opacity:1;visibility:visible;display:inline;overflow:visible"
             id="path11890" />
          <rect
             width="57.578861"
             height="57.578861"
             x="-155.59625"
             y="572.77979"
             transform="matrix(0.604469,-0.796629,0.796629,0.604469,0,0)"
             style="opacity:1;color:#000000;fill:#5ac4fe;fill-opacity:1;fill-rule:evenodd;stroke:none;stroke-width:0.31200001;stroke-linecap:butt;stroke-linejoin:miter;marker:none;marker-start:none;marker-mid:none;marker-end:none;stroke-miterlimit:4;stroke-dasharray:none;stroke-dashoffset:0;stroke-opacity:1;visibility:visible;display:inline;overflow:visible"
             id="rect11884" />
          <path
             d="M 250.50726,537.72582 C 236.55414,525.61222 234.80555,504.58217 246.56647,490.33052 C 258.32739,476.07888 279.30714,473.80498 293.84841,485.20587 C 308.38968,496.60675 311.18745,517.52309 300.15373,532.34488 C 289.12001,547.16668 268.28016,550.48658 253.18711,539.82692"
             transform="translate(188.2894,-74.85915)"
             style="opacity:1;color:#000000;fill:#5afe00;fill-opacity:1;fill-rule:evenodd;stroke:none;stroke-width:0.31200001;stroke-linecap:butt;stroke-linejoin:miter;marker:none;marker-start:none;marker-mid:none;marker-end:none;stroke-miterlimit:4;stroke-dasharray:none;stroke-dashoffset:0;stroke-opacity:1;visibility:visible;display:inline;overflow:visible"
             id="path11872" />
          <path
             d="M 415.45275,450.88584 L 380.79534,446.09214 L 346.13793,441.29843 L 367.61811,413.68109 L 389.09828,386.06374 L 402.27552,418.47479 L 415.45275,450.88584 z "
             transform="translate(-0.66549,1.042535)"
             style="opacity:1;color:#000000;fill:#fe0000;fill-opacity:1;fill-rule:evenodd;stroke:none;stroke-width:0.31200001;stroke-linecap:butt;stroke-linejoin:miter;marker:none;marker-start:none;marker-mid:none;marker-end:none;stroke-miterlimit:4;stroke-dasharray:none;stroke-dashoffset:0;stroke-opacity:1;visibility:visible;display:inline;overflow:visible"
             id="path11886" />
        </g>
      </g>
      <path
         d="M 367.55121,583.97271 L 367.55121,617.57271 L 372.19121,617.57271 C 376.13784,617.57278 378.11117,615.49279 378.11121,611.33271 L 378.11121,590.21271 C 378.11117,586.05282 376.08451,583.97282 372.03121,583.97271 L 367.55121,583.97271 M 367.55121,635.17271 L 367.55121,699.17271 L 349.95121,699.17271 L 349.95121,566.37271 L 372.03121,566.37271 C 387.81783,566.37284 395.71116,576.98616 395.71121,598.21271 L 395.71121,603.33271 C 395.71116,624.55944 387.87116,635.17277 372.19121,635.17271 L 367.55121,635.17271 M 416.41621,602.37271 C 418.76285,600.34613 421.96285,599.3328 426.01621,599.33271 L 426.01621,621.09271 C 424.09618,617.46612 421.96285,615.65279 419.61621,615.65271 C 417.48285,615.65279 416.41619,616.98612 416.41621,619.65271 L 416.41621,699.17271 L 400.57621,699.17271 L 400.57621,599.33271 L 416.41621,599.33271 L 416.41621,602.37271 M 455.31621,619.65271 C 455.31618,616.98612 454.19618,615.65279 451.95621,615.65271 C 449.92952,615.65279 448.91619,616.98612 448.91621,619.65271 L 448.91621,678.85271 C 448.91619,681.62605 449.92952,683.01272 451.95621,683.01271 C 454.19618,683.01272 455.31618,681.62605 455.31621,678.85271 L 455.31621,619.65271 M 471.15621,674.21271 C 471.15616,690.85271 464.75617,699.1727 451.95621,699.17271 C 439.36953,699.1727 433.0762,690.85271 433.07621,674.21271 L 433.07621,624.29271 C 433.0762,607.65279 439.36953,599.3328 451.95621,599.33271 C 464.75617,599.3328 471.15616,607.65279 471.15621,624.29271 L 471.15621,674.21271"
         transform="scale(1.0509831,0.9514901)"
         style="font-size:160px;font-style:normal;font-variant:normal;font-weight:bold;font-stretch:normal;text-align:start;line-height:125%;writing-mode:lr-tb;text-anchor:start;fill:#fe0000;fill-opacity:1;stroke:none;stroke-width:1pt;stroke-linecap:butt;stroke-linejoin:miter;stroke-opacity:1;font-family:Steelfish"
         id="text18207" />
    </g>
  </g>
</svg>
