<?xml version="1.0" encoding="UTF-8" standalone="no"?>
<!-- Created with Inkscape (http://www.inkscape.org/) -->

<svg
   xmlns:dc="http://purl.org/dc/elements/1.1/"
   xmlns:cc="http://creativecommons.org/ns#"
   xmlns:rdf="http://www.w3.org/1999/02/22-rdf-syntax-ns#"
   xmlns:svg="http://www.w3.org/2000/svg"
   xmlns="http://www.w3.org/2000/svg"
   xmlns:sodipodi="http://sodipodi.sourceforge.net/DTD/sodipodi-0.dtd"
   xmlns:inkscape="http://www.inkscape.org/namespaces/inkscape"
   version="1.0"
   width="500.16467"
   height="305.16403"
   id="svg2"
   sodipodi:version="0.32"
   inkscape:version="0.48.1 r9760"
   sodipodi:docname="pytables-front-logo.svg"
   inkscape:output_extension="org.inkscape.output.svg.inkscape"
   sodipodi:modified="true">
  <metadata
     id="metadata2190">
    <rdf:RDF>
      <cc:Work
         rdf:about="">
        <dc:format>image/svg+xml</dc:format>
        <dc:type
           rdf:resource="http://purl.org/dc/dcmitype/StillImage" />
      </cc:Work>
    </rdf:RDF>
  </metadata>
  <sodipodi:namedview
     inkscape:cy="110.34094"
     inkscape:cx="302.43138"
     inkscape:zoom="1"
     inkscape:window-height="776"
     inkscape:window-width="1280"
     inkscape:pageshadow="2"
     inkscape:pageopacity="0"
     guidetolerance="10.0"
     gridtolerance="10.0"
     objecttolerance="10.0"
     borderopacity="1.0"
     bordercolor="#666666"
     pagecolor="#ffffff"
     id="base"
     inkscape:window-x="0"
     inkscape:window-y="24"
     inkscape:current-layer="svg2"
     showgrid="false"
     fit-margin-top="0"
     fit-margin-left="0"
     fit-margin-right="0"
     fit-margin-bottom="0"
     inkscape:window-maximized="1" />
  <defs
     id="defs4">
    <filter
       id="filter4423"
       color-interpolation-filters="sRGB">
      <feGaussianBlur
         id="feGaussianBlur4425"
         stdDeviation="3.3607048"
         inkscape:collect="always" />
    </filter>
    <filter
       id="filter12589"
       color-interpolation-filters="sRGB">
      <feGaussianBlur
         id="feGaussianBlur12591"
         stdDeviation="4.2009766"
         inkscape:collect="always" />
    </filter>
  </defs>
  <flowRoot
     xml:space="preserve"
     id="flowRoot3006"
     style="font-size:40px;font-style:normal;font-weight:normal;line-height:125%;letter-spacing:0px;word-spacing:0px;fill:#000000;fill-opacity:1;stroke:none;font-family:Sans"
     transform="translate(1.0820233,-7.8359767)"><flowRegion
       id="flowRegion3008"><rect
         id="rect3010"
         width="800"
         height="76"
         x="-46"
         y="239" /></flowRegion><flowPara
       id="flowPara3012" /></flowRoot>  <g
     id="g3016">
    <g
       transform="translate(1.0820233,-7.8359767)"
       id="g2363">
      <path
         inkscape:connector-curvature="0"
         d="m 146.43782,17.91832 -13.4375,17.28125 -12.90625,16.625 -9.125,-20.59375 -32.90625,14.5625 14.59375,32.90625 8.15625,-3.625 6.3125,7.59375 -5.8125,8.90625 -15.96875,-16.125 -1.90625,0.40625 c -8.37184,-3.91439 -18.65003,-2.03908 -25.03125,5.25 l -39.125,8.1875 15.59375,8.9375 -25.875,3.34375 24.125,45.3125 11.15625,-8.375 4.6875,20.21875 23,33.0625 62.9375,-16.09375 5.03125,-24.8125 0.125,-0.0625 2.59375,-13.0625 16.15625,-8.28125 -9.875,-22.96875 21.25,-18.3125 -7.9375,-1.1875 16.1875,-21.34375 1.15625,0.9375 c 8.98772,6.34769 21.1615,4.8714 28.375,-3.4375 7.70409,-8.874 6.749,-22.32716 -2.125,-30.03125 -8.874,-7.70409 -22.32716,-6.749 -30.03125,2.125 -5.22051,6.01328 -6.46851,14.11961 -3.96875,21.125 l -14.125,-10.71875 -3.03125,-7.46875 -8.25,-20.28125 z m -26.03125,34.65625 20.625,2.84375 -5.09375,6.6875 -10.5,1.8125 -5.03125,-11.34375 z m 14.15625,20.6875 15.75,11.9375 -19.0625,-2.875 0.0625,-0.1875 3.25,-8.875 z m 43.65625,2.5625 0,114.75 16.8125,0 0,-55.3125 4.40625,0 c 14.96654,5e-5 22.46871,-9.1571 22.46875,-27.5 l 0,-4.4375 c -4e-5,-18.34274 -7.5254,-27.49988 -22.59375,-27.5 l -21.09375,0 z m 86.46875,0 0,15.1875 12.21875,0 0,99.5625 16.8125,0 0,-99.5625 12.21875,0 0,-15.1875 -41.25,0 z m 78.625,0 0,114.75 7.34375,0 2.4375,-4.6875 c 2.54531,3.13395 6.05143,4.68749 10.53125,4.6875 10.69038,0 16.06245,-7.18316 16.0625,-21.5625 l 0,-43.15625 c -4e-5,-14.37924 -4.93662,-21.56242 -14.8125,-21.5625 -2.44355,9e-5 -4.60487,0.32361 -6.4375,0.96875 l 0,-29.4375 -15.125,0 z m 44.875,0 0,114.75 15.125,0 0,-114.75 -15.125,0 z m -193.15625,15.1875 4.28125,0 c 3.86888,1e-4 5.78122,1.81152 5.78125,5.40625 l 0,18.25 c -3e-5,3.5949 -1.88918,5.40633 -5.65625,5.40625 l -4.40625,0 0,-29.0625 z m 30.8125,13.28125 12.6875,84.21875 c -0.91634,4.70093 -4.4769,7.22504 -10.6875,7.59375 l 0,13.96875 c 7.33055,-2e-5 13.1845,-1.74736 17.5625,-5.25 4.47977,-3.41048 7.28627,-8.78068 8.40625,-16.0625 l 12.375,-84.46875 -15.59375,0 -3.21875,22.6875 -1.5,20.59375 -1.53125,-20.875 -3.0625,-22.40625 -15.4375,0 z m 92.78125,0 c -11.60674,9e-5 -17.40626,7.18326 -17.40625,21.5625 l 0,13.4375 15.125,0 0,-17.4375 c -2e-5,-2.30431 0.75402,-3.46867 2.28125,-3.46875 1.7308,7e-5 2.59372,1.16444 2.59375,3.46875 l 0,16.875 c -1.93448,1.19833 -4.119,2.52525 -6.5625,4 -2.44355,1.38267 -4.73693,3.00028 -6.875,4.84375 -2.13809,1.84354 -3.9728,4.0113 -5.5,6.5 -1.4254,2.48876 -2.12502,5.40047 -2.125,8.71875 l 0,6.21875 c -10e-6,14.37933 4.42349,21.56249 13.28125,21.5625 3.1562,0 5.74495,-1.19719 7.78125,-3.59375 l 0,3.59375 15.125,0 0,-64.71875 c -4e-5,-14.37924 -5.90843,-21.56242 -17.71875,-21.5625 z m 111.34375,0 c -12.014,9e-5 -18.03124,7.18326 -18.03125,21.5625 l 0,43.15625 c 0,14.37933 6.01725,21.56249 18.03125,21.5625 12.21757,0 18.31246,-7.18316 18.3125,-21.5625 l 0,-13.84375 -15.125,0 0,17.84375 c -3e-5,2.39657 -1.04945,3.59376 -3.1875,3.59375 -1.93447,1e-5 -2.90628,-1.19717 -2.90625,-3.59375 l 0,-21.71875 21.21875,0 0,-25.4375 c -4e-5,-14.37924 -6.09493,-21.56242 -18.3125,-21.5625 z m 41.3125,0 c -11.30131,9e-5 -16.93749,7.66777 -16.9375,22.96875 0,9.21756 3.45168,17.08061 10.375,23.625 6.10879,5.80706 9.15623,10.78964 9.15625,14.9375 l 0,7.59375 c -2e-5,2.39657 -0.91738,3.59375 -2.75,3.59375 -1.83266,1e-5 -2.75002,-1.19717 -2.75,-3.59375 l 0,-11.59375 -14.03125,0 0,5.65625 c 0,15.39325 5.74507,23.09374 17.25,23.09375 11.6067,0 17.40618,-7.57079 17.40625,-22.6875 -4e-5,-7.28181 -3.45171,-14.8854 -10.375,-22.8125 -6.21064,-6.72874 -9.31252,-12.06767 -9.3125,-16.03125 l 0,-7.59375 c -2e-5,-2.39649 0.75403,-3.59368 2.28125,-3.59375 1.73081,8e-5 2.59372,1.19727 2.59375,3.59375 l 0,12.15625 14.21875,0 0,-6.34375 c -4e-5,-15.30099 -5.72192,-22.96867 -17.125,-22.96875 z m -109.78125,14.09375 c 2.03625,7e-5 3.06249,1.16444 3.0625,3.46875 l 0,51.15625 c -2e-5,2.39657 -1.02625,3.59376 -3.0625,3.59375 -2.03629,1e-5 -3.06251,-1.19717 -3.0625,-3.59375 l 0,-51.15625 c -2e-5,-2.30431 1.02621,-3.46867 3.0625,-3.46875 z m 68.46875,0 c 2.13806,7e-5 3.18747,1.16444 3.1875,3.46875 l 0,15.625 -6.09375,0 0,-15.625 c -2e-5,-2.30431 0.97177,-3.46867 2.90625,-3.46875 z m -108.75,36.78125 0,17.84375 c -2e-5,2.39657 -1.10387,3.59376 -3.34375,3.59375 -1.73084,1e-5 -2.59375,-1.19717 -2.59375,-3.59375 l 0,-9.125 c -10e-6,-3.02004 0.70675,-5.08179 2.125,-6.21875 0.50904,-0.46084 1.0766,-0.88128 1.6875,-1.25 0.71266,-0.46084 1.41227,-0.88126 2.125,-1.25 z"
         style="fill:#666666;fill-opacity:1;fill-rule:evenodd;stroke:none;filter:url(#filter12589)"
         id="path7633" />
      <g
         id="g2343">
        <g
           transform="translate(-139.23835,-210.35986)"
           id="g5145">
          <g
             transform="matrix(0.6250903,0,0,0.6250903,44.866939,-21.690729)"
             id="g4578">
            <path
               inkscape:connector-curvature="0"
               d="M 269.29134,665.25588 370,639.50504 392.42126,528.83856 316.24016,504.92124 209.94094,515.55116"
               style="fill:#ffc500;fill-opacity:1;fill-rule:evenodd;stroke:none"
               id="path5094" />
            <path
               inkscape:connector-curvature="0"
               d="m 210,515.21932 44.28571,42.85715 15.00563,107.17941 L 232.5,612.36218"
               style="fill:#ff8000;fill-opacity:1;fill-rule:evenodd;stroke:none"
               id="path5096" />
            <path
               inkscape:connector-curvature="0"
               d="m 209.94094,515.55116 106.29922,-10.62992 76.1811,23.91732 -138.18898,29.23228"
               style="fill:#000000;fill-opacity:1;fill-rule:evenodd;stroke:none"
               id="path5098" />
            <path
               inkscape:connector-curvature="0"
               d="m 293.57143,634.1479 84.6766,-34.4432 13.89483,-70.19966 -137.91058,28.5658"
               style="fill:#ff8000;fill-opacity:1;fill-rule:evenodd;stroke:none"
               id="path5100" />
            <path
               inkscape:connector-curvature="0"
               d="m 298.21429,622.00504 110,-56.42857 -15.79303,-36.73791 -138.18898,29.23228"
               style="fill:#ffff00;fill-opacity:1;fill-rule:evenodd;stroke:none"
               id="path5102" />
            <path
               inkscape:connector-curvature="0"
               d="m 254.23228,558.07084 -47.08942,35.36277 -38.57143,-72.5 41.36951,-5.38245"
               style="fill:#ffb000;fill-opacity:1;fill-rule:evenodd;stroke:none"
               id="path5104" />
            <path
               inkscape:connector-curvature="0"
               d="M 316.24016,504.92124 290.71429,479.1479 185,501.29075 l 24.94094,14.26041"
               style="fill:#fedc00;fill-opacity:1;fill-rule:evenodd;stroke:none"
               id="path5106" />
            <path
               inkscape:connector-curvature="0"
               d="m 392.42126,528.83856 34.00731,-29.33352 -97.14286,-14.64286 -13.04555,20.05906"
               style="fill:#fedc00;fill-opacity:1;fill-rule:evenodd;stroke:none"
               id="path5108" />
          </g>
          <g
             transform="matrix(0.6250922,0,0,0.6250922,44.866374,-21.691816)"
             id="g20830">
            <rect
               width="57.57877"
               height="57.57877"
               x="80.187126"
               y="507.73257"
               transform="matrix(0.914235,-0.405185,0.405185,0.914235,0,0)"
               style="color:#000000;fill:#5ac4fe;fill-opacity:1;fill-rule:evenodd;stroke:none;stroke-width:0.31200001;marker:none;visibility:visible;display:inline;overflow:visible"
               id="rect11882" />
            <path
               inkscape:connector-curvature="0"
               d="m 250.50726,537.72582 c -13.95312,-12.1136 -15.70171,-33.14365 -3.94079,-47.3953 11.76092,-14.25164 32.74067,-16.52554 47.28194,-5.12465 14.54127,11.40088 17.33904,32.31722 6.30532,47.13901 -11.03372,14.8218 -31.87357,18.1417 -46.96662,7.48204"
               transform="translate(0.391719,-1.379946)"
               style="color:#000000;fill:#fe0000;fill-opacity:1;fill-rule:evenodd;stroke:none;stroke-width:0.31200001;marker:none;visibility:visible;display:inline;overflow:visible"
               id="path10124" />
            <path
               inkscape:connector-curvature="0"
               d="m 415.45275,450.88584 -34.65741,-4.7937 -34.65741,-4.79371 21.48018,-27.61734 21.48017,-27.61735 13.17724,32.41105 13.17723,32.41105 z"
               transform="matrix(0.73867,0.674068,-0.674068,0.73867,349.1653,-90.46148)"
               style="color:#000000;fill:#5afe00;fill-opacity:1;fill-rule:evenodd;stroke:none;stroke-width:0.31200001;marker:none;visibility:visible;display:inline;overflow:visible"
               id="path11890" />
            <rect
               width="57.578861"
               height="57.578861"
               x="-155.59625"
               y="572.77979"
               transform="matrix(0.604469,-0.796629,0.796629,0.604469,0,0)"
               style="color:#000000;fill:#5ac4fe;fill-opacity:1;fill-rule:evenodd;stroke:none;stroke-width:0.31200001;marker:none;visibility:visible;display:inline;overflow:visible"
               id="rect11884" />
            <path
               inkscape:connector-curvature="0"
               d="m 250.50726,537.72582 c -13.95312,-12.1136 -15.70171,-33.14365 -3.94079,-47.3953 11.76092,-14.25164 32.74067,-16.52554 47.28194,-5.12465 14.54127,11.40088 17.33904,32.31722 6.30532,47.13901 -11.03372,14.8218 -31.87357,18.1417 -46.96662,7.48204"
               transform="translate(188.2894,-74.85915)"
               style="color:#000000;fill:#5afe00;fill-opacity:1;fill-rule:evenodd;stroke:none;stroke-width:0.31200001;marker:none;visibility:visible;display:inline;overflow:visible"
               id="path11872" />
            <path
               inkscape:connector-curvature="0"
               d="m 415.45275,450.88584 -34.65741,-4.7937 -34.65741,-4.79371 21.48018,-27.61734 21.48017,-27.61735 13.17724,32.41105 13.17723,32.41105 z"
               transform="translate(-0.66549,1.042535)"
               style="color:#000000;fill:#fe0000;fill-opacity:1;fill-rule:evenodd;stroke:none;stroke-width:0.31200001;marker:none;visibility:visible;display:inline;overflow:visible"
               id="path11886" />
          </g>
        </g>
        <path
           inkscape:connector-curvature="0"
           transform="scale(1.0509831,0.9514901)"
           id="text18207"
           d="m 187.45786,87.256083 0,30.515457 4.21403,0 c 3.58433,7e-5 5.37651,-1.88898 5.37654,-5.66716 l 0,-19.18114 c -3e-5,-3.778004 -1.84065,-5.667054 -5.52185,-5.667157 l -4.06872,0 m 0,46.499747 0,58.12468 -15.98429,0 0,-120.608715 20.05301,0 c 14.33739,1.19e-4 21.50609,9.639119 21.50614,28.917025 l 0,4.64998 c -5e-5,19.27808 -7.12032,28.91709 -21.36083,28.91703 l -4.21403,0 m 31.22612,63.93715 c 5.90933,-0.38751 9.29994,-3.05155 10.17182,-7.99214 l -12.06087,-88.49483 14.67648,0 2.90623,23.54049 1.45312,21.94207 1.45312,-21.65144 3.05154,-23.83112 14.8218,0 -11.77025,88.78545 c -1.06565,7.65307 -3.72969,13.27179 -7.99214,16.85616 -4.16562,3.68121 -9.7359,5.52182 -16.71085,5.52184 l 0,-14.67648 m 35.06823,-126.421185 39.23416,0 0,15.984288 -11.62493,0 0,104.624427 -15.98429,0 0,-104.624427 -11.62494,0 0,-15.984288 m 53.78747,83.408915 c -0.67814,0.38754 -1.35626,0.82347 -2.03436,1.30781 -0.58127,0.38753 -1.11408,0.82347 -1.59843,1.30781 l 0.14531,-0.14532 c -1.45313,1.16253 -2.17969,3.39064 -2.17967,6.68434 l 0,9.59058 c -2e-5,2.51875 0.82341,3.77811 2.4703,3.7781 2.13121,1e-5 3.19683,-1.25935 3.19685,-3.7781 l 0,-18.74522 m -20.05301,7.99215 c -1e-5,-3.48745 0.67811,-6.53899 2.03436,-9.15464 1.45311,-2.61557 3.19685,-4.89212 5.23122,-6.82965 2.03435,-1.93744 4.21403,-3.63274 6.53903,-5.08591 2.32497,-1.54994 4.40777,-2.95462 6.2484,-4.21404 l 0,-17.72803 c -2e-5,-2.42179 -0.82345,-3.63272 -2.4703,-3.63279 -1.45313,7e-5 -2.17969,1.211 -2.17967,3.63279 l 0,18.30928 -14.38586,0 0,-14.09524 c -10e-6,-15.11233 5.52183,-22.66853 16.56553,-22.66862 11.23741,9e-5 16.85612,7.55629 16.85616,22.66862 l 0,68.00588 -14.38586,0 0,-3.7781 c -1.93751,2.51873 -4.40781,3.7781 -7.41089,3.7781 -8.42809,0 -12.64213,-7.5562 -12.64212,-22.66862 l 0,-6.53903 m 61.2811,-43.01227 c -3e-5,-2.42179 -0.96877,-3.63272 -2.90624,-3.63279 -1.93751,7e-5 -2.90625,1.211 -2.90623,3.63279 l 0,53.76534 c -2e-5,2.51875 0.96872,3.77811 2.90623,3.7781 1.93747,1e-5 2.90621,-1.25935 2.90624,-3.7781 l 0,-53.76534 m -20.19833,-48.388795 14.38586,0 0,30.951395 c 1.74372,-0.67803 3.77808,-1.01709 6.10309,-1.01718 9.39679,9e-5 14.0952,7.55629 14.09523,22.66862 l 0,45.33726 c -3e-5,15.11242 -5.08594,22.66862 -15.25772,22.66862 -4.2625,0 -7.60467,-1.64686 -10.02651,-4.9406 l -2.32499,4.9406 -6.97496,0 0,-120.608715 m 42.68304,0 14.38586,0 0,120.608715 -14.38586,0 0,-120.608715 m 36.97955,64.809025 5.81247,0 0,-16.42023 c -3e-5,-2.42179 -1.01721,-3.63272 -3.05155,-3.63279 -1.84063,7e-5 -2.76094,1.211 -2.76092,3.63279 l 0,16.42023 m 0,14.53117 0,22.81394 c -2e-5,2.51875 0.92029,3.77811 2.76092,3.7781 2.03434,1e-5 3.05152,-1.25935 3.05155,-3.7781 l 0,-18.74522 14.38586,0 0,14.53118 c -4e-5,15.11242 -5.8125,22.66862 -17.43741,22.66862 -11.43119,0 -17.14678,-7.5562 -17.14678,-22.66862 l 0,-45.33726 c 0,-15.11233 5.71559,-22.66853 17.14678,-22.66862 11.62491,9e-5 17.43737,7.55629 17.43741,22.66862 l 0,26.73736 -20.19833,0 m 44.85407,-31.38733 c -2e-5,-2.51866 -0.82345,-3.77803 -2.47029,-3.77811 -1.45314,8e-5 -2.1797,1.25945 -2.17968,3.77811 l 0,7.99214 c -2e-5,4.16566 2.95465,9.78438 8.86401,16.85616 6.58743,8.33124 9.88116,16.32338 9.8812,23.97643 -4e-5,15.88742 -5.52188,23.83112 -16.56553,23.83112 -10.94683,0 -16.42023,-8.08901 -16.42023,-24.26705 l 0,-5.95778 13.36868,0 0,12.20618 c -2e-5,2.51875 0.87185,3.77812 2.61561,3.7781 1.74372,2e-5 2.61559,-1.25935 2.61561,-3.7781 l 0,-7.99214 c -2e-5,-4.35933 -2.90625,-9.59054 -8.7187,-15.69367 -6.58747,-6.87804 -9.8812,-15.1608 -9.8812,-24.8483 0,-16.08108 5.37653,-24.12165 16.1296,-24.12174 10.84991,9e-5 16.27488,8.04066 16.27491,24.12174 l 0,6.68434 -13.51399,0 0,-12.78743"
           style="font-size:145.31170654px;font-style:normal;font-variant:normal;font-weight:bold;font-stretch:normal;text-align:start;line-height:125%;writing-mode:lr-tb;text-anchor:start;fill:#ff8000;fill-opacity:1;stroke:none;font-family:Steelfish" />
      </g>
    </g>
    <text
       transform="scale(0.90548802,1.1043768)"
       sodipodi:linespacing="125%"
       id="text3014"
       y="232.56256"
       x="-2.1181686"
       style="font-size:30.92255211px;font-style:normal;font-variant:normal;font-weight:bold;font-stretch:normal;text-align:start;line-height:125%;letter-spacing:0px;word-spacing:0px;writing-mode:lr-tb;text-anchor:start;fill:#666666;fill-opacity:1;stroke:none;font-family:Sans;-inkscape-font-specification:Sans Bold"
       xml:space="preserve"><tspan
         y="232.56256"
         x="-2.1181686"
         id="tspan3016"
         sodipodi:role="line">Hierarchical datasets in Python</tspan></text>
  </g>
  <flowRoot
     xml:space="preserve"
     id="flowRoot3018"
     style="font-size:40px;font-style:normal;font-weight:normal;line-height:125%;letter-spacing:0px;word-spacing:0px;fill:#000000;fill-opacity:1;stroke:none;font-family:Sans"
     transform="translate(1.0820233,-7.8359767)"><flowRegion
       id="flowRegion3020"><rect
         id="rect3022"
         width="101"
         height="86"
         x="264"
         y="383" /></flowRegion><flowPara
       id="flowPara3024" /></flowRoot></svg>
