<?xml version="1.0" standalone="no"?>
<!DOCTYPE svg PUBLIC "-//W3C//DTD SVG 1.1//EN"
"http://www.w3.org/Graphics/SVG/1.1/DTD/svg11.dtd">
<!-- Creator: fig2dev Version 3.2 Patchlevel 5-alpha7 -->
<!-- CreationDate: Thu Aug 10 10:43:47 2006 -->
<!-- Magnification: 1.050 -->
<svg xmlns="http://www.w3.org/2000/svg" width="8.7in" height="4.8in" viewBox="1732 1291 10436 5775">
<g style="stroke-width:.025in; stroke:black; fill:none">
<!-- Line -->
<polyline points="2551,4110
3307,2787
" style="stroke:#000000;stroke-width:8;
stroke-linejoin:miter; stroke-linecap:butt;
"/>
<!-- Line -->
<polyline points="4204,2362
6236,1559
" style="stroke:#000000;stroke-width:8;
stroke-linejoin:miter; stroke-linecap:butt;
"/>
<!-- Line -->
<polyline points="8362,3968
9212,2881
" style="stroke:#000000;stroke-width:8;
stroke-linejoin:miter; stroke-linecap:butt;
"/>
<!-- Line -->
<polyline points="11527,3921
10299,2929
" style="stroke:#000000;stroke-width:8;
stroke-linejoin:miter; stroke-linecap:butt;
"/>
<!-- Line -->
<polyline points="9354,2456
7181,1559
" style="stroke:#000000;stroke-width:8;
stroke-linejoin:miter; stroke-linecap:butt;
"/>
<!-- Line -->
<polyline points="4677,4157
3826,2787
" style="stroke:#000000;stroke-width:8;
stroke-linejoin:miter; stroke-linecap:butt;
"/>
<!-- Line -->
<polyline points="6992,5102
7795,4440
" style="stroke:#000000;stroke-width:8;
stroke-linejoin:miter; stroke-linecap:butt;
"/>
<!-- Line -->
<polyline points="8740,5102
8551,4440
" style="stroke:#000000;stroke-width:8;
stroke-linejoin:miter; stroke-linecap:butt;
"/>
<!-- Line -->
<polyline points="10488,5055
9070,4346
" style="stroke:#000000;stroke-width:8;
stroke-linejoin:miter; stroke-linecap:butt;
"/>
<!-- Line -->
<polygon points="7606,3637
7693,3610
7779,3586
7863,3564
7943,3544
8019,3527
8092,3511
8158,3498
8219,3486
8275,3476
8325,3466
8370,3459
8411,3453
8447,3446
8478,3442
8506,3438
8531,3435
8553,3432
8573,3429
8592,3427
8608,3426
8625,3424
8642,3424
8660,3424
8678,3424
8698,3424
8720,3425
8745,3426
8772,3428
8804,3432
8839,3435
8879,3440
8924,3445
8975,3451
9029,3459
9090,3468
9156,3480
9228,3492
9303,3507
9383,3524
9466,3544
9551,3566
9637,3590
9718,3616
9797,3644
9874,3671
9946,3699
10014,3728
10078,3755
10138,3780
10193,3804
10243,3827
10288,3848
10330,3867
10368,3884
10402,3900
10432,3913
10459,3926
10485,3938
10507,3947
10527,3956
10545,3965
10562,3972
10578,3980
10594,3988
10609,3995
10624,4005
10640,4014
10656,4025
10672,4036
10691,4051
10710,4067
10731,4085
10754,4107
10780,4131
10806,4158
10835,4190
10866,4224
10899,4263
10934,4306
10971,4354
11008,4406
11047,4462
11086,4522
11124,4586
11162,4654
11196,4724
11225,4787
11250,4850
11274,4914
11296,4976
11317,5037
11337,5097
11356,5154
11374,5209
11393,5261
11411,5312
11428,5359
11446,5404
11464,5446
11482,5486
11500,5524
11519,5560
11538,5593
11556,5625
11575,5655
11594,5685
11612,5712
11631,5738
11650,5764
11668,5790
11685,5815
11701,5839
11717,5864
11731,5889
11744,5914
11755,5941
11764,5968
11772,5996
11777,6026
11779,6056
11778,6088
11773,6121
11764,6156
11751,6193
11733,6232
11710,6271
11680,6312
11646,6355
11604,6399
11555,6445
11499,6490
11436,6536
11364,6581
11285,6625
11197,6668
11102,6708
11027,6735
10949,6762
10868,6786
10785,6808
10700,6829
10615,6848
10529,6866
10444,6882
10358,6897
10274,6911
10190,6923
10107,6934
10026,6944
9946,6954
9868,6961
9793,6969
9718,6976
9646,6981
9575,6986
9507,6991
9440,6995
9374,6998
9311,7000
9248,7003
9187,7004
9128,7006
9069,7007
9012,7008
8955,7008
8899,7009
8845,7009
8789,7008
8734,7008
8681,7007
8626,7006
8572,7005
8517,7003
8461,7002
8406,7000
8349,6997
8291,6995
8233,6992
8173,6988
8112,6984
8050,6980
7986,6976
7920,6971
7853,6965
7783,6959
7712,6953
7639,6945
7565,6937
7488,6929
7409,6918
7330,6908
7248,6896
7164,6883
7080,6870
6994,6855
6908,6839
6820,6823
6733,6804
6646,6784
6560,6762
6475,6740
6393,6714
6312,6688
6236,6661
6137,6621
6047,6579
5964,6535
5889,6491
5822,6446
5763,6402
5711,6359
5666,6316
5628,6275
5595,6235
5569,6197
5547,6160
5531,6125
5520,6092
5511,6060
5507,6030
5506,6002
5508,5974
5513,5948
5520,5923
5529,5899
5540,5876
5551,5853
5564,5829
5579,5806
5593,5783
5608,5760
5625,5737
5640,5712
5656,5687
5673,5659
5689,5632
5706,5602
5721,5571
5737,5538
5753,5502
5767,5464
5783,5424
5798,5381
5813,5336
5827,5289
5843,5238
5858,5186
5875,5130
5891,5074
5909,5015
5929,4955
5950,4893
5973,4832
5999,4771
6032,4703
6068,4638
6106,4576
6143,4517
6181,4461
6219,4411
6256,4364
6291,4322
6324,4284
6356,4249
6386,4219
6413,4192
6439,4167
6464,4146
6486,4129
6507,4113
6527,4099
6545,4088
6562,4076
6580,4068
6597,4058
6614,4051
6630,4043
6649,4035
6668,4027
6688,4018
6710,4010
6734,3999
6761,3988
6790,3975
6822,3962
6857,3945
6897,3928
6940,3908
6987,3886
7040,3863
7096,3838
7158,3812
7223,3783
7293,3754
7366,3724
7444,3694
7524,3665
7606,3637
" style="stroke:#ff0000;stroke-width:63;
stroke-linejoin:bevel; stroke-linecap:butt;
"/>
<!-- Text -->
<text xml:space="preserve" x="4346" y="4440" stroke="#000000" fill="#000000"  font-family="Times" font-style="normal" font-weight="normal" font-size="278" text-anchor="start">Table2</text>
<!-- Text -->
<text xml:space="preserve" x="2881" y="2692" stroke="#000000" fill="#000000"  font-family="Times" font-style="normal" font-weight="normal" font-size="278" text-anchor="start">Group1</text>
<!-- Text -->
<text xml:space="preserve" x="9212" y="2787" stroke="#000000" fill="#000000"  font-family="Times" font-style="normal" font-weight="normal" font-size="278" text-anchor="start">Group2</text>
<!-- Text -->
<text xml:space="preserve" x="1748" y="4440" stroke="#000000" fill="#000000"  font-family="Times" font-style="normal" font-weight="normal" font-size="278" text-anchor="start">Table1</text>
<!-- Text -->
<text xml:space="preserve" x="6377" y="1559" stroke="#000000" fill="#000000"  font-family="Times" font-style="normal" font-weight="normal" font-size="278" text-anchor="start">Root</text>
<!-- Text -->
<text xml:space="preserve" x="7889" y="4299" stroke="#000000" fill="#000000"  font-family="Times" font-style="normal" font-weight="normal" font-size="278" text-anchor="start">Group3</text>
<!-- Text -->
<text xml:space="preserve" x="6425" y="5480" stroke="#000000" fill="#000000"  font-family="Times" font-style="normal" font-weight="normal" font-size="278" text-anchor="start">Table4</text>
<!-- Text -->
<text xml:space="preserve" x="8362" y="5433" stroke="#000000" fill="#000000"  font-family="Times" font-style="normal" font-weight="normal" font-size="278" text-anchor="start">Table5</text>
<!-- Text -->
<text xml:space="preserve" x="10251" y="5433" stroke="#000000" fill="#000000"  font-family="Times" font-style="normal" font-weight="normal" font-size="278" text-anchor="start">Array2</text>
<!-- Text -->
<text xml:space="preserve" x="11055" y="4299" stroke="#000000" fill="#000000"  font-family="Times" font-style="normal" font-weight="normal" font-size="278" text-anchor="start">Array1</text>
</g>
</svg>
